<svg width="250" height="250" viewBox="0 0 250 250" fill="none" xmlns="http://www.w3.org/2000/svg">
<rect x="155.829" y="81.3813" width="11.1455" height="32.3032" rx="3.5" fill="white" stroke="black" stroke-width="3"/>
<mask id="path-2-inside-1_287_1471" fill="white">
<path fill-rule="evenodd" clip-rule="evenodd" d="M132.052 64.6101C127.265 59.0525 118.656 59.0525 113.869 64.6101L66.9245 119.107C61.1316 125.832 64.4779 135.753 72.1251 138.316V163C72.1251 176.807 83.318 188 97.1251 188H147.912C161.719 188 172.912 176.807 172.912 163V138.575C181.177 136.506 185.008 126.086 178.996 119.107L132.052 64.6101Z"/>
</mask>
<path fill-rule="evenodd" clip-rule="evenodd" d="M132.052 64.6101C127.265 59.0525 118.656 59.0525 113.869 64.6101L66.9245 119.107C61.1316 125.832 64.4779 135.753 72.1251 138.316V163C72.1251 176.807 83.318 188 97.1251 188H147.912C161.719 188 172.912 176.807 172.912 163V138.575C181.177 136.506 185.008 126.086 178.996 119.107L132.052 64.6101Z" fill="white"/>
<path d="M113.869 64.6101L110.838 61.9995V61.9995L113.869 64.6101ZM132.052 64.6101L135.083 61.9995L132.052 64.6101ZM66.9245 119.107L63.8939 116.496H63.8939L66.9245 119.107ZM72.1251 138.316H76.1251V135.438L73.3965 134.524L72.1251 138.316ZM172.912 138.575L171.941 134.694L168.912 135.452V138.575H172.912ZM178.996 119.107L182.027 116.496V116.496L178.996 119.107ZM116.899 67.2207C120.091 63.5156 125.83 63.5156 129.022 67.2207L135.083 61.9995C128.7 54.5894 117.221 54.5894 110.838 61.9995L116.899 67.2207ZM69.9551 121.718L116.899 67.2207L110.838 61.9995L63.8939 116.496L69.9551 121.718ZM73.3965 134.524C68.2865 132.811 66.1242 126.165 69.9551 121.718L63.8939 116.496C56.139 125.499 60.6693 138.695 70.8538 142.109L73.3965 134.524ZM76.1251 163V138.316H68.1251V163H76.1251ZM97.1251 184C85.5271 184 76.1251 174.598 76.1251 163H68.1251C68.1251 179.016 81.1089 192 97.1251 192V184ZM147.912 184H97.1251V192H147.912V184ZM168.912 163C168.912 174.598 159.51 184 147.912 184V192C163.928 192 176.912 179.016 176.912 163H168.912ZM168.912 138.575V163H176.912V138.575H168.912ZM175.966 121.718C179.948 126.34 177.447 133.316 171.941 134.694L173.883 142.455C184.907 139.696 190.068 125.831 182.027 116.496L175.966 121.718ZM129.022 67.2207L175.966 121.718L182.027 116.496L135.083 61.9995L129.022 67.2207Z" fill="black" mask="url(#path-2-inside-1_287_1471)"/>
<mask id="path-4-inside-2_287_1471" fill="white">
<path fill-rule="evenodd" clip-rule="evenodd" d="M129.547 59.0607C125.573 55.0079 119.497 55.0104 115.385 59.3038L61.6727 115.384C57.2111 120.042 56.7501 127.988 60.643 133.131C64.5359 138.274 71.3086 138.667 75.7702 134.008L122.613 85.1003L169.456 134.008C173.918 138.667 180.691 138.274 184.584 133.131C188.476 127.988 188.015 120.042 183.554 115.384L130.289 59.7711C130.048 59.5196 129.801 59.2828 129.547 59.0607Z"/>
</mask>
<path fill-rule="evenodd" clip-rule="evenodd" d="M129.547 59.0607C125.573 55.0079 119.497 55.0104 115.385 59.3038L61.6727 115.384C57.2111 120.042 56.7501 127.988 60.643 133.131C64.5359 138.274 71.3086 138.667 75.7702 134.008L122.613 85.1003L169.456 134.008C173.918 138.667 180.691 138.274 184.584 133.131C188.476 127.988 188.015 120.042 183.554 115.384L130.289 59.7711C130.048 59.5196 129.801 59.2828 129.547 59.0607Z" fill="#407AFF"/>
<path d="M115.385 59.3038L118.274 62.0706V62.0706L115.385 59.3038ZM129.547 59.0607L126.691 61.8614L126.797 61.9696L126.911 62.0695L129.547 59.0607ZM61.6727 115.384L58.7839 112.617H58.7839L61.6727 115.384ZM60.643 133.131L57.4537 135.545H57.4537L60.643 133.131ZM75.7702 134.008L72.8814 131.241H72.8814L75.7702 134.008ZM122.613 85.1003L125.502 82.3335L122.613 79.3174L119.725 82.3335L122.613 85.1003ZM169.456 134.008L166.568 136.775L169.456 134.008ZM184.584 133.131L181.394 130.717L184.584 133.131ZM183.554 115.384L180.665 118.151L183.554 115.384ZM130.289 59.7711L133.178 57.0044L133.178 57.0043L130.289 59.7711ZM118.274 62.0706C120.857 59.3734 124.331 59.4549 126.691 61.8614L132.403 56.26C126.814 50.561 118.137 50.6473 112.496 56.537L118.274 62.0706ZM64.5614 118.151L118.274 62.0706L112.496 56.537L58.7839 112.617L64.5614 118.151ZM63.8324 130.716C61.1251 127.14 61.4588 121.39 64.5614 118.151L58.7839 112.617C52.9634 118.694 52.375 128.835 57.4537 135.545L63.8324 130.716ZM72.8814 131.241C70.1227 134.122 66.2395 133.897 63.8324 130.716L57.4537 135.545C62.8324 142.651 72.4945 143.211 78.6589 136.775L72.8814 131.241ZM119.725 82.3335L72.8814 131.241L78.6589 136.775L125.502 87.8671L119.725 82.3335ZM119.725 87.8671L166.568 136.775L172.345 131.242L125.502 82.3335L119.725 87.8671ZM166.568 136.775C172.732 143.211 182.394 142.651 187.773 135.545L181.394 130.717C178.987 133.897 175.104 134.122 172.345 131.242L166.568 136.775ZM187.773 135.545C192.852 128.835 192.263 118.694 186.443 112.617L180.665 118.151C183.768 121.39 184.101 127.14 181.394 130.717L187.773 135.545ZM186.443 112.617L133.178 57.0044L127.4 62.5379L180.665 118.151L186.443 112.617ZM133.178 57.0043C132.857 56.6696 132.525 56.3519 132.183 56.0518L126.911 62.0695C127.076 62.2137 127.239 62.3696 127.4 62.5379L133.178 57.0043Z" fill="black" mask="url(#path-4-inside-2_287_1471)"/>
<path d="M100 125C100 122.791 101.791 121 104 121H117C119.209 121 121 122.791 121 125V138C121 140.209 119.209 142 117 142H104C101.791 142 100 140.209 100 138V125Z" fill="#B4FFF6" stroke="black" stroke-width="2"/>
<rect x="133" y="134" width="15" height="15" rx="4" fill="#B4FFF6" stroke="black" stroke-width="2"/>
<path d="M114 164C114 161.239 116.239 159 119 159H125C129.418 159 133 162.582 133 167V184H114V164Z" fill="#9D845F" stroke="black" stroke-width="2"/>
<circle cx="117" cy="173" r="2" fill="black"/>
<g filter="url(#filter0_d_287_1471)">
<path d="M177.5 156.917C186.015 156.917 192.917 150.015 192.917 141.5C192.917 132.986 186.015 126.083 177.5 126.083C168.986 126.083 162.083 132.986 162.083 141.5C162.083 150.015 168.986 156.917 177.5 156.917Z" fill="#FFB800"/>
</g>
<g filter="url(#filter1_d_287_1471)">
<path d="M143.417 79.8333C151.931 79.8333 158.833 72.9311 158.833 64.4167C158.833 55.9023 151.931 49 143.417 49C134.902 49 128 55.9023 128 64.4167C128 72.9311 134.902 79.8333 143.417 79.8333Z" fill="#FF0000"/>
</g>
<g filter="url(#filter2_d_287_1471)">
<path d="M156.417 201.833C164.931 201.833 171.833 194.931 171.833 186.417C171.833 177.902 164.931 171 156.417 171C147.902 171 141 177.902 141 186.417C141 194.931 147.902 201.833 156.417 201.833Z" fill="#DEA7F8"/>
</g>
<g filter="url(#filter3_d_287_1471)">
<path d="M76.4167 192.833C84.9311 192.833 91.8333 185.931 91.8333 177.417C91.8333 168.902 84.9311 162 76.4167 162C67.9023 162 61 168.902 61 177.417C61 185.931 67.9023 192.833 76.4167 192.833Z" fill="#EBFF00"/>
</g>
<ellipse cx="151.667" cy="191.244" rx="1.33333" ry="1.54062" fill="black"/>
<ellipse cx="160.666" cy="191.244" rx="1.33333" ry="1.54062" fill="black"/>
<path fill-rule="evenodd" clip-rule="evenodd" d="M149 182C148.448 182 148 182.448 148 183V190.244C148 190.796 148.448 191.244 149 191.244H150C150 190.18 150.746 189.318 151.667 189.318C152.587 189.318 153.333 190.18 153.333 191.244H159C159 190.18 159.746 189.318 160.667 189.318C161.587 189.318 162.333 190.18 162.333 191.244H164C164.552 191.244 165 190.796 165 190.244V183C165 182.448 164.552 182 164 182H149ZM151.155 183.541C150.517 183.541 150 184.058 150 184.696C150 185.334 150.517 185.851 151.155 185.851H151.511C152.149 185.851 152.667 185.334 152.667 184.696C152.667 184.058 152.149 183.541 151.511 183.541H151.155ZM158 184.696C158 184.058 158.517 183.541 159.155 183.541H159.511C160.149 183.541 160.667 184.058 160.667 184.696C160.667 185.334 160.149 185.851 159.511 185.851H159.155C158.517 185.851 158 185.334 158 184.696ZM155.155 183.541C154.517 183.541 154 184.058 154 184.696C154 185.334 154.517 185.851 155.155 185.851H155.511C156.149 185.851 156.667 185.334 156.667 184.696C156.667 184.058 156.149 183.541 155.511 183.541H155.155Z" fill="#337847"/>
<rect x="162.667" y="183.541" width="2.33333" height="5.007" rx="1.16667" fill="white"/>
<path fill-rule="evenodd" clip-rule="evenodd" d="M84.9995 174.988L76.0002 171L67.0008 174.988H67L67.0004 174.989L67 174.989H67.0008L76.0002 178.977L82.9429 175.9V180.455H83.7144V175.558L84.9995 174.989H85.0003L84.9999 174.989L85.0003 174.988H84.9995ZM76.001 179.281L76.0002 179.281V179.257L75.9704 179.269L70.0866 176.909V181.628L70.0858 181.628L70.0866 181.629V181.653L70.1165 181.641L76.0002 184V179.281L76.001 179.281ZM76.001 179.281L76.0016 179.281V184L81.8854 181.641L81.9154 181.653V181.629L81.9159 181.628L81.9154 181.628V176.909L76.0315 179.269L76.0016 179.257V179.281L76.001 179.281Z" fill="black"/>
<ellipse cx="172.739" cy="142.12" rx="4.73926" ry="6.11999" fill="#337847"/>
<rect width="0.666601" height="4.6832" rx="0.333301" transform="matrix(0.896792 -0.442453 0.725973 0.687723 169.171 143.456)" fill="#503826"/>
<path fill-rule="evenodd" clip-rule="evenodd" d="M176.198 142.493C176.385 142.529 176.435 142.674 176.309 142.818L175.195 144.085C175.163 144.122 175.122 144.155 175.076 144.183C175.064 144.219 175.031 144.254 174.977 144.286L172.898 145.481C172.752 145.565 172.506 145.584 172.348 145.524C172.191 145.465 172.181 145.348 172.327 145.264L174.407 144.069C174.423 144.06 174.44 144.051 174.459 144.043C174.47 144.014 174.489 143.984 174.515 143.955L175.629 142.687C175.755 142.544 176.01 142.456 176.198 142.493Z" fill="#503826"/>
<rect x="172.212" y="141.76" width="1.05317" height="12.24" rx="0.526584" fill="#503826"/>
<ellipse cx="182.739" cy="140.8" rx="4.73926" ry="6.8" fill="#337847"/>
<rect width="0.681735" height="4.93615" rx="0.340867" transform="matrix(0.876884 -0.480702 0.688771 0.724979 179.171 142.284)" fill="#503826"/>
<path fill-rule="evenodd" clip-rule="evenodd" d="M186.198 141.214C186.386 141.254 186.441 141.409 186.322 141.559L185.182 143C185.153 143.036 185.117 143.069 185.076 143.097C185.063 143.135 185.032 143.172 184.981 143.204L182.894 144.537C182.75 144.629 182.506 144.649 182.348 144.583C182.191 144.516 182.18 144.388 182.324 144.296L184.411 142.963C184.424 142.955 184.438 142.947 184.453 142.939C184.464 142.912 184.48 142.883 184.502 142.855L185.642 141.414C185.761 141.264 186.01 141.174 186.198 141.214Z" fill="#503826"/>
<rect x="182.212" y="140.4" width="1.05317" height="13.6" rx="0.526584" fill="#503826"/>
<ellipse cx="177.739" cy="140.14" rx="4.73926" ry="7.14" fill="#337847"/>
<rect width="0.689761" height="5.06737" rx="0.344881" transform="matrix(0.866681 -0.498864 0.670935 0.741516 174.171 141.698)" fill="#503826"/>
<path fill-rule="evenodd" clip-rule="evenodd" d="M181.198 140.575C181.385 140.617 181.444 140.775 181.328 140.929L180.176 142.458C180.149 142.494 180.115 142.527 180.075 142.555C180.062 142.593 180.032 142.63 179.982 142.663L177.892 144.065C177.749 144.161 177.505 144.182 177.348 144.112C177.19 144.042 177.179 143.908 177.322 143.812L179.412 142.41C179.424 142.402 179.437 142.395 179.451 142.388C179.46 142.361 179.475 142.333 179.496 142.306L180.648 140.777C180.764 140.623 181.01 140.533 181.198 140.575Z" fill="#503826"/>
<rect x="177.212" y="139.72" width="1.05317" height="14.28" rx="0.526584" fill="#503826"/>
<rect x="149" y="183" width="3.75" height="3" rx="1.5" fill="#46FFF4"/>
<rect x="157" y="183" width="3.75" height="3" rx="1.5" fill="#46FFF4"/>
<rect x="153" y="183" width="3.75" height="3" rx="1.5" fill="#46FFF4"/>
<path fill-rule="evenodd" clip-rule="evenodd" d="M142.454 58C141.902 58 141.454 58.4477 141.454 59V63.4546H137C136.448 63.4546 136 63.9024 136 64.4546V66.5455C136 67.0978 136.448 67.5455 137 67.5455H141.454V72C141.454 72.5523 141.902 73 142.454 73H144.545C145.098 73 145.545 72.5523 145.545 72V67.5455H150C150.552 67.5455 151 67.0978 151 66.5456V64.4546C151 63.9024 150.552 63.4546 150 63.4546H145.545V59C145.545 58.4477 145.098 58 144.545 58H142.454Z" fill="#337847"/>
<g filter="url(#filter4_d_287_1471)">
<path d="M75.5002 105.917C84.0146 105.917 90.9168 99.0146 90.9168 90.5002C90.9168 81.9858 84.0146 75.0835 75.5002 75.0835C66.9858 75.0835 60.0835 81.9858 60.0835 90.5002C60.0835 99.0146 66.9858 105.917 75.5002 105.917Z" fill="#04D100"/>
<path d="M69.1338 87C69.1338 84.5147 71.1485 82.5 73.6338 82.5H78.206C80.6913 82.5 82.706 84.5147 82.706 87V91.6765C82.706 94.1618 80.6913 96.1765 78.206 96.1765H73.6338C71.1485 96.1765 69.1338 94.1618 69.1338 91.6765V87Z" fill="#E7E7E7" stroke="black"/>
<rect x="70.4009" y="84.5967" width="11.0379" height="6.68768" rx="2.5" fill="#407AFF" stroke="black"/>
<path d="M80.5841 93.7266C80.5841 94.0607 80.2312 94.4697 79.6106 94.4697C78.99 94.4697 78.6372 94.0607 78.6372 93.7266C78.6372 93.3924 78.99 92.9834 79.6106 92.9834C80.2312 92.9834 80.5841 93.3924 80.5841 93.7266Z" fill="white" stroke="black"/>
<path d="M72.9815 93.7266C72.9815 94.0607 72.6287 94.4697 72.0081 94.4697C71.3875 94.4697 71.0347 94.0607 71.0347 93.7266C71.0347 93.3924 71.3875 92.9834 72.0081 92.9834C72.6287 92.9834 72.9815 93.3924 72.9815 93.7266Z" fill="white" stroke="black"/>
<path d="M79.8179 96.6567L80.9849 99.0002" stroke="black" stroke-linecap="round"/>
<path d="M70.8486 99L72.0156 96.6565" stroke="black" stroke-linecap="round"/>
<path d="M73.7021 97.7246H78.1372" stroke="black" stroke-linecap="round"/>
<path d="M73.0688 99.4722H78.771" stroke="black" stroke-linecap="round"/>
</g>
<defs>
<filter id="filter0_d_287_1471" x="155" y="123" width="45" height="45" filterUnits="userSpaceOnUse" color-interpolation-filters="sRGB">
<feFlood flood-opacity="0" result="BackgroundImageFix"/>
<feColorMatrix in="SourceAlpha" type="matrix" values="0 0 0 0 0 0 0 0 0 0 0 0 0 0 0 0 0 0 127 0" result="hardAlpha"/>
<feOffset dy="4"/>
<feGaussianBlur stdDeviation="2"/>
<feComposite in2="hardAlpha" operator="out"/>
<feColorMatrix type="matrix" values="0 0 0 0 0 0 0 0 0 0 0 0 0 0 0 0 0 0 0.25 0"/>
<feBlend mode="normal" in2="BackgroundImageFix" result="effect1_dropShadow_287_1471"/>
<feBlend mode="normal" in="SourceGraphic" in2="effect1_dropShadow_287_1471" result="shape"/>
</filter>
<filter id="filter1_d_287_1471" x="124" y="49" width="38.8335" height="38.8335" filterUnits="userSpaceOnUse" color-interpolation-filters="sRGB">
<feFlood flood-opacity="0" result="BackgroundImageFix"/>
<feColorMatrix in="SourceAlpha" type="matrix" values="0 0 0 0 0 0 0 0 0 0 0 0 0 0 0 0 0 0 127 0" result="hardAlpha"/>
<feOffset dy="4"/>
<feGaussianBlur stdDeviation="2"/>
<feComposite in2="hardAlpha" operator="out"/>
<feColorMatrix type="matrix" values="0 0 0 0 0 0 0 0 0 0 0 0 0 0 0 0 0 0 0.25 0"/>
<feBlend mode="normal" in2="BackgroundImageFix" result="effect1_dropShadow_287_1471"/>
<feBlend mode="normal" in="SourceGraphic" in2="effect1_dropShadow_287_1471" result="shape"/>
</filter>
<filter id="filter2_d_287_1471" x="137" y="171" width="38.8335" height="38.8335" filterUnits="userSpaceOnUse" color-interpolation-filters="sRGB">
<feFlood flood-opacity="0" result="BackgroundImageFix"/>
<feColorMatrix in="SourceAlpha" type="matrix" values="0 0 0 0 0 0 0 0 0 0 0 0 0 0 0 0 0 0 127 0" result="hardAlpha"/>
<feOffset dy="4"/>
<feGaussianBlur stdDeviation="2"/>
<feComposite in2="hardAlpha" operator="out"/>
<feColorMatrix type="matrix" values="0 0 0 0 0 0 0 0 0 0 0 0 0 0 0 0 0 0 0.25 0"/>
<feBlend mode="normal" in2="BackgroundImageFix" result="effect1_dropShadow_287_1471"/>
<feBlend mode="normal" in="SourceGraphic" in2="effect1_dropShadow_287_1471" result="shape"/>
</filter>
<filter id="filter3_d_287_1471" x="57" y="162" width="38.8335" height="38.8335" filterUnits="userSpaceOnUse" color-interpolation-filters="sRGB">
<feFlood flood-opacity="0" result="BackgroundImageFix"/>
<feColorMatrix in="SourceAlpha" type="matrix" values="0 0 0 0 0 0 0 0 0 0 0 0 0 0 0 0 0 0 127 0" result="hardAlpha"/>
<feOffset dy="4"/>
<feGaussianBlur stdDeviation="2"/>
<feComposite in2="hardAlpha" operator="out"/>
<feColorMatrix type="matrix" values="0 0 0 0 0 0 0 0 0 0 0 0 0 0 0 0 0 0 0.25 0"/>
<feBlend mode="normal" in2="BackgroundImageFix" result="effect1_dropShadow_287_1471"/>
<feBlend mode="normal" in="SourceGraphic" in2="effect1_dropShadow_287_1471" result="shape"/>
</filter>
<filter id="filter4_d_287_1471" x="53" y="72" width="45" height="45" filterUnits="userSpaceOnUse" color-interpolation-filters="sRGB">
<feFlood flood-opacity="0" result="BackgroundImageFix"/>
<feColorMatrix in="SourceAlpha" type="matrix" values="0 0 0 0 0 0 0 0 0 0 0 0 0 0 0 0 0 0 127 0" result="hardAlpha"/>
<feOffset dy="4"/>
<feGaussianBlur stdDeviation="2"/>
<feComposite in2="hardAlpha" operator="out"/>
<feColorMatrix type="matrix" values="0 0 0 0 0 0 0 0 0 0 0 0 0 0 0 0 0 0 0.25 0"/>
<feBlend mode="normal" in2="BackgroundImageFix" result="effect1_dropShadow_287_1471"/>
<feBlend mode="normal" in="SourceGraphic" in2="effect1_dropShadow_287_1471" result="shape"/>
</filter>
</defs>
</svg>
